<svg fill="#3adcdf" height="173px" width="173px" version="1.1" id="Capa_1" xmlns="http://www.w3.org/2000/svg" xmlns:xlink="http://www.w3.org/1999/xlink" viewBox="-30.66 -30.66 367.96 367.96" xml:space="preserve" stroke="#3adcdf" stroke-width="8.279199000000002" transform="rotate(0)"><g id="SVGRepo_bgCarrier" stroke-width="0"></g><g id="SVGRepo_tracerCarrier" stroke-linecap="round" stroke-linejoin="round" stroke="#284d5d" stroke-width="28.823877999999997"> <g> <g> <path d="M12.809,238.52L0,306.637l68.118-12.809l184.277-184.277l-55.309-55.309L12.809,238.52z M60.79,279.943l-41.992,7.896 l7.896-41.992L197.086,75.455l34.096,34.096L60.79,279.943z"></path> <path d="M251.329,0l-41.507,41.507l55.308,55.308l41.507-41.507L251.329,0z M231.035,41.507l20.294-20.294l34.095,34.095 L265.13,75.602L231.035,41.507z"></path> </g> <g> </g> <g> </g> <g> </g> <g> </g> <g> </g> <g> </g> <g> </g> <g> </g> <g> </g> <g> </g> <g> </g> <g> </g> <g> </g> <g> </g> <g> </g> </g> </g><g id="SVGRepo_iconCarrier"> <g> <g> <path d="M12.809,238.52L0,306.637l68.118-12.809l184.277-184.277l-55.309-55.309L12.809,238.52z M60.79,279.943l-41.992,7.896 l7.896-41.992L197.086,75.455l34.096,34.096L60.79,279.943z"></path> <path d="M251.329,0l-41.507,41.507l55.308,55.308l41.507-41.507L251.329,0z M231.035,41.507l20.294-20.294l34.095,34.095 L265.13,75.602L231.035,41.507z"></path> </g> <g> </g> <g> </g> <g> </g> <g> </g> <g> </g> <g> </g> <g> </g> <g> </g> <g> </g> <g> </g> <g> </g> <g> </g> <g> </g> <g> </g> <g> </g> </g> </g></svg>